<svg width="350" height="350" viewBox="0 0 350 350" fill="none" xmlns="http://www.w3.org/2000/svg">
<rect width="350" height="350" fill="#F3F2F2"/>
<rect x="12" y="12" width="326" height="326" stroke="#66A192" stroke-width="4"/>
<path d="M62.7024 48.8182H76.4808L89.7479 73.875H90.3161L103.583 48.8182H117.362L96.1399 86.4318V107H83.924V86.4318L62.7024 48.8182ZM174.031 77.9091C174.031 84.2538 172.828 89.6515 170.423 94.1023C168.036 98.553 164.779 101.953 160.65 104.301C156.54 106.631 151.919 107.795 146.786 107.795C141.616 107.795 136.976 106.621 132.866 104.273C128.756 101.924 125.508 98.5246 123.121 94.0739C120.735 89.6231 119.542 84.2348 119.542 77.9091C119.542 71.5644 120.735 66.1667 123.121 61.7159C125.508 57.2652 128.756 53.875 132.866 51.5455C136.976 49.197 141.616 48.0227 146.786 48.0227C151.919 48.0227 156.54 49.197 160.65 51.5455C164.779 53.875 168.036 57.2652 170.423 61.7159C172.828 66.1667 174.031 71.5644 174.031 77.9091ZM161.559 77.9091C161.559 73.7992 160.943 70.3333 159.712 67.5114C158.5 64.6894 156.786 62.5492 154.57 61.0909C152.354 59.6326 149.76 58.9034 146.786 58.9034C143.813 58.9034 141.218 59.6326 139.002 61.0909C136.786 62.5492 135.063 64.6894 133.832 67.5114C132.62 70.3333 132.013 73.7992 132.013 77.9091C132.013 82.0189 132.62 85.4848 133.832 88.3068C135.063 91.1288 136.786 93.2689 139.002 94.7273C141.218 96.1856 143.813 96.9148 146.786 96.9148C149.76 96.9148 152.354 96.1856 154.57 94.7273C156.786 93.2689 158.5 91.1288 159.712 88.3068C160.943 85.4848 161.559 82.0189 161.559 77.9091ZM219.08 48.8182H231.381V86.6023C231.381 90.8447 230.368 94.5568 228.342 97.7386C226.334 100.92 223.522 103.402 219.904 105.182C216.287 106.943 212.073 107.824 207.262 107.824C202.433 107.824 198.209 106.943 194.592 105.182C190.974 103.402 188.162 100.92 186.154 97.7386C184.147 94.5568 183.143 90.8447 183.143 86.6023V48.8182H195.444V85.5511C195.444 87.767 195.927 89.7367 196.893 91.4602C197.878 93.1837 199.26 94.5379 201.04 95.5227C202.821 96.5076 204.895 97 207.262 97C209.648 97 211.722 96.5076 213.484 95.5227C215.264 94.5379 216.637 93.1837 217.603 91.4602C218.588 89.7367 219.08 87.767 219.08 85.5511V48.8182ZM241.502 107V48.8182H264.457C268.851 48.8182 272.601 49.6042 275.707 51.1761C278.832 52.7292 281.209 54.9356 282.837 57.7955C284.485 60.6364 285.309 63.9792 285.309 67.8239C285.309 71.6875 284.476 75.0114 282.809 77.7955C281.142 80.5606 278.728 82.6818 275.565 84.1591C272.421 85.6364 268.614 86.375 264.144 86.375H248.775V76.4886H262.156C264.504 76.4886 266.455 76.1667 268.008 75.5227C269.561 74.8788 270.716 73.9129 271.474 72.625C272.25 71.3371 272.638 69.7367 272.638 67.8239C272.638 65.892 272.25 64.2633 271.474 62.9375C270.716 61.6117 269.551 60.608 267.979 59.9261C266.426 59.2254 264.466 58.875 262.099 58.875H253.803V107H241.502ZM272.923 80.5227L287.383 107H273.803L259.656 80.5227H272.923ZM131.062 204H117.88L137.965 145.818H153.817L173.874 204H160.692L146.119 159.114H145.664L131.062 204ZM130.238 181.131H161.374V190.733H130.238V181.131ZM201.502 204H180.877V145.818H201.673C207.525 145.818 212.563 146.983 216.786 149.312C221.01 151.623 224.258 154.947 226.531 159.284C228.822 163.621 229.968 168.811 229.968 174.852C229.968 180.913 228.822 186.121 226.531 190.477C224.258 194.833 220.991 198.176 216.729 200.506C212.487 202.835 207.411 204 201.502 204ZM193.178 193.46H200.991C204.627 193.46 207.686 192.816 210.167 191.528C212.667 190.222 214.542 188.205 215.792 185.477C217.061 182.731 217.695 179.189 217.695 174.852C217.695 170.553 217.061 167.04 215.792 164.312C214.542 161.585 212.676 159.578 210.195 158.29C207.714 157.002 204.656 156.358 201.019 156.358H193.178V193.46ZM74.9787 301V242.818H87.2798V266.824H112.251V242.818H124.524V301H112.251V276.966H87.2798V301H74.9787ZM134.666 301V242.818H173.871V252.96H146.967V266.824H171.854V276.966H146.967V290.858H173.984V301H134.666ZM183.651 301V242.818H206.605C210.999 242.818 214.749 243.604 217.855 245.176C220.98 246.729 223.357 248.936 224.986 251.795C226.634 254.636 227.457 257.979 227.457 261.824C227.457 265.687 226.624 269.011 224.957 271.795C223.291 274.561 220.876 276.682 217.713 278.159C214.569 279.636 210.762 280.375 206.293 280.375H190.923V270.489H204.304C206.652 270.489 208.603 270.167 210.156 269.523C211.709 268.879 212.865 267.913 213.622 266.625C214.399 265.337 214.787 263.737 214.787 261.824C214.787 259.892 214.399 258.263 213.622 256.938C212.865 255.612 211.7 254.608 210.128 253.926C208.575 253.225 206.615 252.875 204.247 252.875H195.952V301H183.651ZM215.071 274.523L229.531 301H215.952L201.804 274.523H215.071ZM236.151 301V242.818H275.355V252.96H248.452V266.824H273.338V276.966H248.452V290.858H275.469V301H236.151Z" fill="#66A292"/>
</svg>
