<svg width="88" height="97" viewBox="0 0 88 97" fill="none" xmlns="http://www.w3.org/2000/svg">
<path fill-rule="evenodd" clip-rule="evenodd" d="M0 22.8861H20.4123V32.8277H1.93357C1.86991 32.8277 1.85069 32.8474 1.85069 32.9127V51.5212H15.468V61.4911H1.85069V73.7552H0.0276909C0.0548574 73.8596 0.120662 73.9531 0.184545 74.0439C0.208716 74.0782 0.232612 74.1122 0.254036 74.1462C0.326894 74.2619 0.399577 74.3783 0.472412 74.495C0.793097 75.0087 1.11713 75.5277 1.47171 76.0131C1.55323 76.1247 1.62329 76.2288 1.70012 76.3429L1.72368 76.3779C2.30014 77.2344 2.92696 78.0672 3.58226 78.8622L3.85521 79.2053C3.88422 79.2432 3.9051 79.2678 3.92565 79.292C3.94596 79.3159 3.96612 79.3397 3.99337 79.3753C4.02759 79.4202 4.05322 79.4487 4.07853 79.4768C4.1 79.5006 4.12123 79.5242 4.14729 79.5574L5.87176 81.5278C6.04391 81.7564 7.22777 82.9622 7.54724 83.2652C7.57905 83.2953 7.60284 83.3134 7.62635 83.3313C7.65238 83.3511 7.67806 83.3706 7.71388 83.4059C7.75476 83.4463 7.79345 83.4882 7.83191 83.5298C7.89209 83.595 7.95177 83.6597 8.01837 83.7167L8.81773 84.4548C8.9963 84.6381 9.20632 84.8143 9.41483 84.9892C9.55097 85.1034 9.68704 85.2175 9.81271 85.3323C10.1599 85.6492 10.531 85.9393 10.9016 86.2291C11.1677 86.4371 11.4335 86.6449 11.6902 86.8624L14.5676 88.9253C15.7405 89.7284 16.9772 90.4493 18.2298 91.1178L21.3553 92.6429C21.4363 92.6773 21.5081 92.709 21.5813 92.7414C21.6444 92.7694 21.7093 92.7981 21.7815 92.8291C23.5491 93.5883 25.3553 94.2339 27.1973 94.7814C27.3576 94.829 27.5163 94.8707 27.6733 94.9119C27.8433 94.9565 28.0112 95.0006 28.1772 95.0512C29.6985 95.5144 32.7997 96.065 34.331 96.2465L36.8484 96.4975C36.9645 96.5072 37.0803 96.5091 37.1968 96.5109C37.3673 96.5137 37.539 96.5164 37.7148 96.5437C37.8166 96.5595 37.9236 96.5568 38.0302 96.5542C38.124 96.5518 38.2176 96.5495 38.3069 96.5598C38.6784 96.6025 39.6611 96.6119 40.0601 96.6123H40.0786C40.9714 96.6124 41.9121 96.5615 42.8232 96.5122C43.0898 96.4978 43.3546 96.4835 43.6142 96.4706C44.1363 96.4448 45.356 96.3006 45.8464 96.2389C47.9958 95.9689 49.9888 95.5666 52.017 95.0323C54.0835 94.4877 56.4513 93.6876 58.401 92.7983C58.5841 92.7149 58.7664 92.6332 58.9481 92.5519C59.4671 92.3195 59.9808 92.0895 60.4907 91.8255C60.5617 91.7887 60.6324 91.7561 60.7042 91.723C60.7758 91.69 60.8486 91.6564 60.9236 91.6179C63.0009 90.5511 64.9601 89.3668 66.8601 88.0187C66.8769 88.0067 66.8925 87.996 66.9073 87.986L66.9374 87.9655C66.9763 87.9393 67.0122 87.9151 67.0569 87.8806L67.7663 87.3619C68.3356 86.9601 68.8727 86.5142 69.4094 86.0685C69.6632 85.8578 69.9173 85.6468 70.1743 85.4409C70.7693 84.9642 71.3211 84.4356 71.8726 83.9074C72.0028 83.7826 72.1334 83.6576 72.2641 83.5335C72.2965 83.5028 72.322 83.4831 72.347 83.4637C72.3767 83.4407 72.4056 83.4182 72.4447 83.3786C72.502 83.3205 72.5637 83.2543 72.6272 83.186C72.7705 83.0321 72.9235 82.8678 73.0586 82.7621C73.1945 82.6558 73.5626 82.2784 73.6662 82.139L75.2919 80.3504C75.442 80.158 75.6036 79.9746 75.7654 79.791C75.9454 79.5868 76.1257 79.3821 76.2903 79.165L77.6476 77.4129C78.1528 76.7651 78.7267 75.899 79.174 75.211L79.3605 74.9247L79.3627 74.9212C79.4623 74.7684 79.56 74.6186 79.6604 74.4636C80.6476 72.939 81.514 71.3126 82.3117 69.6766L83.0944 67.9584C83.226 67.6697 83.3486 67.3907 83.4641 67.0912L83.5657 66.8279L83.6706 66.557C84.0751 65.5123 84.421 64.6188 84.8012 63.4491C85.6548 60.8226 86.2792 58.0923 86.6676 55.3364C86.7202 54.9637 86.7707 54.6045 86.8117 54.2379L86.9816 52.5144C86.9863 52.4514 86.9951 52.3748 87.0044 52.2951C87.0184 52.174 87.0333 52.0455 87.0356 51.9466C87.0403 51.7452 87.0478 51.5616 87.0642 51.3528C87.0683 51.2995 87.0717 51.2308 87.0753 51.157C87.0822 51.0154 87.0901 50.8542 87.1063 50.7446L87.1456 49.5386C87.1456 49.32 87.1524 49.1228 87.1592 48.9242C87.1662 48.7229 87.1732 48.5202 87.1732 48.2924L87.1466 46.6485C87.1434 46.3809 87.124 46.0937 87.1045 45.8051C87.087 45.5449 87.0693 45.2834 87.0634 45.0344L86.8774 42.9592C86.8585 42.8065 86.8428 42.6596 86.8273 42.5153L86.8271 42.5139C86.8066 42.3227 86.7866 42.1359 86.7604 41.9463C86.5824 40.6588 86.3956 39.3653 86.1127 38.1069C86.0731 37.931 86.0394 37.77 86.0055 37.6085L86.0052 37.6074C85.9761 37.4684 85.9466 37.3281 85.9135 37.1782C85.6165 35.834 85.249 34.5015 84.822 33.1994C84.8091 33.1601 84.798 33.1247 84.788 33.0929C84.7481 32.9656 84.7258 32.8943 84.6774 32.8557C84.6161 32.8068 84.5128 32.8103 84.2787 32.8183C84.1586 32.8224 84.0042 32.8277 83.8033 32.8277C82.0914 32.8277 80.9141 33.0193 79.4021 33.866C79.0553 34.0602 78.747 34.2803 78.4369 34.519L77.9824 34.9027C77.946 34.9391 77.9226 34.9566 77.8978 34.9752C77.8785 34.9896 77.8583 35.0048 77.8304 35.03C77.3526 35.4615 76.9408 35.9836 76.5994 36.5435C75.9533 37.6033 75.7412 38.4997 75.4653 39.6651L75.4344 39.7956L73.7492 46.9611L73.6665 47.2975C73.4042 48.3641 73.1305 49.4769 72.9045 50.5419C72.6723 51.6367 72.4054 52.7299 72.1405 53.8148L72.0643 54.127C72.0286 54.2734 71.9949 54.4183 71.9611 54.5643C71.9266 54.7129 71.8919 54.8627 71.8544 55.0164L71.0147 58.6021C70.9767 58.7567 70.9393 58.9177 70.9022 59.0777C70.8677 59.2261 70.8335 59.3736 70.7992 59.5141C70.4801 60.8224 70.2657 61.6662 69.7677 62.9032C69.1487 64.4412 68.3729 65.615 67.4393 66.8885C66.7873 67.778 66.0005 68.5795 65.1931 69.3152C65.1655 69.3403 65.1467 69.3543 65.1284 69.3679C65.1076 69.3833 65.0873 69.3983 65.0553 69.4289C64.9975 69.484 64.978 69.5001 64.9275 69.5419L64.9064 69.5593C64.8967 69.5674 64.887 69.5754 64.8775 69.5833C64.8676 69.5916 64.8578 69.5998 64.8481 69.608C64.8225 69.6296 64.7975 69.6509 64.7726 69.6721L64.7706 69.6738C64.7163 69.72 64.6622 69.766 64.6028 69.8145C63.5674 70.6604 62.4629 71.37 61.2734 71.9803C59.9864 72.6407 58.6604 73.0702 57.2483 73.4042C56.2964 73.6293 55.2841 73.7552 54.3037 73.7552H49.1661V63.8136H54.0274C55.7141 63.8136 57.2658 63.2979 58.3983 62.2627L59.2874 61.3051C59.999 60.3768 60.5175 59.3036 60.8811 58.1808C61.2236 57.1231 61.5354 56.0447 61.8111 54.9143C62.0742 53.8355 62.3293 52.7605 62.5845 51.6856L62.5848 51.6842C62.8648 50.5044 63.1449 49.3246 63.4354 48.1396L65.0594 41.3361C65.2093 40.7213 65.3553 40.1084 65.5005 39.4987L65.5016 39.4942L65.502 39.4922L65.5024 39.4908C65.6254 38.9742 65.7479 38.46 65.8717 37.9488C65.9419 37.6589 66.0065 37.3805 66.071 37.1019L66.0714 37.1003C66.1354 36.8242 66.1995 36.5476 66.269 36.2602C66.3933 35.7467 66.5531 35.2468 66.715 34.7404L66.7504 34.6297C66.8606 34.2846 66.9868 33.9834 67.1193 33.6675L67.1829 33.5153C67.2133 33.4423 67.2411 33.3833 67.2686 33.3253C67.2951 33.2693 67.3213 33.2137 67.3489 33.1474C67.8822 31.8663 68.9911 30.2195 69.9031 29.1671L70.3859 28.6142C70.4138 28.5833 70.4377 28.5597 70.4633 28.5344C70.4781 28.5198 70.4935 28.5046 70.5106 28.4871L70.773 28.218C72.1712 26.7843 73.7997 25.6218 75.581 24.708L76.6536 24.2216C76.7043 24.2008 76.7491 24.1808 76.7932 24.1612C76.8653 24.1292 76.9355 24.098 77.0258 24.0651C77.1099 24.0345 77.193 24.0039 77.2756 23.9736C77.7053 23.8156 78.1199 23.6633 78.5769 23.5314L78.5897 23.5277C79.0538 23.3939 79.7885 23.182 80.2678 23.141C80.2336 23.0097 80.1142 22.8359 80.0119 22.687C79.9708 22.627 79.9323 22.571 79.9033 22.5235L79.5276 21.9174C79.4371 21.7789 79.3531 21.6497 79.267 21.5171L79.1408 21.3227C79.0759 21.2229 79.0121 21.1283 78.9489 21.0346L78.9481 21.0334C78.8812 20.9342 78.8149 20.8359 78.7487 20.7334C77.9344 19.4719 76.5605 17.6959 75.5788 16.5632C75.498 16.4698 75.4173 16.3758 75.3366 16.2817C75.0387 15.9344 74.7387 15.5847 74.4187 15.2603L73.9495 14.7502C73.8857 14.6848 73.8248 14.6226 73.7646 14.5611C73.6661 14.4606 73.5696 14.362 73.4657 14.2548C73.4409 14.2291 73.4226 14.208 73.4043 14.1871C73.3904 14.1711 73.3764 14.155 73.3597 14.137L72.4998 13.2626C72.4575 13.2197 72.4199 13.1881 72.382 13.1564C72.3407 13.1218 72.299 13.087 72.2506 13.0368C72.2308 13.0162 72.2113 12.9954 72.1919 12.9747C72.13 12.9086 72.0688 12.8432 71.9974 12.7866L70.4553 11.3939C69.863 10.8155 67.9692 9.35313 67.1865 8.79778L64.8604 7.21773C64.6953 7.11089 64.5433 7.01748 64.3801 6.91709L64.2593 6.84275C63.9491 6.65145 63.636 6.47297 63.3228 6.29445C63.0187 6.12108 62.7144 5.94759 62.4127 5.76236C62.3494 5.72347 62.2926 5.69572 62.2341 5.6671C62.192 5.6465 62.149 5.62545 62.1019 5.59948C61.0402 5.01321 59.9463 4.48747 58.843 3.98467C58.2004 3.69179 57.5515 3.43604 56.898 3.17847C56.6259 3.07126 56.353 2.9637 56.0795 2.85305C56.016 2.82736 55.954 2.80623 55.893 2.78544C55.832 2.76462 55.7719 2.74414 55.7123 2.71977C54.9338 2.40127 53.5992 2.01033 52.7726 1.76903C52.0062 1.54521 51.2394 1.33989 50.4574 1.16902C50.3589 1.14752 50.2636 1.12616 50.1695 1.10506C50.0001 1.06708 49.8345 1.02994 49.661 0.99441L49.4126 0.943554C49.223 0.904748 49.0337 0.866 48.8555 0.829105C47.7452 0.598922 46.6413 0.454418 45.4976 0.306992C45.1596 0.26345 44.8107 0.234468 44.4702 0.206185C44.2157 0.185044 43.9658 0.164293 43.7288 0.138144C43.2349 0.0835795 42.3982 0.0263899 41.9014 0.0294213C41.7999 0.0299841 41.7304 0.0222306 41.6616 0.0145432C41.5944 0.00704832 41.5278 -0.000383675 41.4327 1.53825e-05L39.1947 0.000725861C38.0506 0.000725861 36.9674 0.0875983 35.8978 0.173383L35.5508 0.201101C34.4181 0.290829 33.288 0.471397 32.1631 0.664293C30.2895 0.985417 28.5273 1.43901 26.71 1.95515C26.4626 2.02538 26.2109 2.10086 25.9676 2.18513L23.4814 3.06292C23.4222 3.08494 23.3653 3.10811 23.3079 3.13147C23.2476 3.15602 23.1868 3.18077 23.1223 3.20459C22.9513 3.26777 22.7868 3.33608 22.6164 3.40687C22.5612 3.4298 22.5052 3.45304 22.4483 3.4764C22.3676 3.50952 22.2877 3.54164 22.2086 3.57348C21.9448 3.67959 21.6886 3.78262 21.4342 3.90939C21.2842 3.98409 21.1258 4.05251 20.9667 4.1212C20.7817 4.20106 20.5959 4.28129 20.4216 4.37217L19.1324 5.00452L18.9117 5.11775C18.7722 5.18933 18.6373 5.25851 18.4879 5.33494C16.6572 6.27214 14.7443 7.50449 13.0813 8.68441L11.4232 9.9298C10.8527 10.371 10.0698 10.9955 9.57768 11.4646C9.54592 11.4949 9.52566 11.51 9.50494 11.5254C9.48651 11.5391 9.46771 11.5532 9.44012 11.5784L8.41638 12.5113C7.91534 12.941 7.4026 13.4676 6.93249 13.9504L6.80178 14.0846L4.16256 17.0146C3.23815 18.1351 2.34448 19.2805 1.53034 20.49L0.182495 22.5634C0.17351 22.5771 0.163534 22.592 0.152996 22.6077C0.0955968 22.6932 0.0214662 22.8038 0 22.8861ZM29.8644 46.9614C29.8644 48.2853 30.0239 49.6497 30.284 50.7229C30.5739 51.9196 30.9529 53.085 31.494 54.1839C32.0823 55.379 32.8385 56.684 33.7109 57.6886C33.7593 57.7443 33.8129 57.8065 33.8704 57.8732C34.2758 58.3432 34.8754 59.0384 35.223 59.3104C35.2743 59.3505 35.3133 59.3907 35.3526 59.4312C35.3916 59.4714 35.431 59.5119 35.4832 59.5533L36.3357 60.2654C36.9271 60.7206 37.5334 61.1412 38.177 61.521C39.793 62.475 41.5528 63.1801 43.4024 63.4985C43.8398 63.5738 44.3133 63.625 44.7725 63.6747C44.9258 63.6912 45.0776 63.7076 45.2259 63.7247C45.3078 63.7341 45.396 63.7315 45.4843 63.7288C45.5725 63.7262 45.6607 63.7235 45.7426 63.7329C45.9026 63.7514 46.0449 63.7572 46.2438 63.7572V73.7552C44.1383 73.7552 42.1004 73.4651 40.1395 72.9621C38.3072 72.4924 36.5258 71.8103 34.8454 70.9419C33.0983 70.039 31.4519 68.9674 29.9232 67.7187C29.7625 67.5873 29.6284 67.4718 29.4691 67.3346C29.4292 67.3002 29.3892 67.2658 29.3492 67.2314C29.0237 66.9515 28.6968 66.6704 28.393 66.3706L25.4048 62.892L24.4893 61.6499C24.1605 61.144 23.8479 60.6461 23.5582 60.1122C23.5009 60.0067 23.4422 59.8997 23.3829 59.7918C23.1526 59.3726 22.9137 58.9377 22.7195 58.5081C21.8625 56.6114 21.2791 55.1415 20.7767 53.0229C20.4407 51.6066 20.2596 50.1434 20.1432 48.6875L20.0863 47.0747C20.0865 47.0244 20.0858 46.9731 20.0852 46.9216C20.0842 46.8393 20.0832 46.7566 20.0855 46.6772L20.1137 45.8846C20.1116 45.5195 20.2208 44.2574 20.2602 43.939C20.4957 42.0384 20.8783 40.3052 21.4502 38.5316C21.5828 38.1202 21.7337 37.7262 21.8857 37.3354C21.9519 37.1653 22.0209 37.0005 22.0942 36.8253C22.1036 36.8027 22.1131 36.78 22.1227 36.7571L22.4984 35.896C22.5744 35.7402 22.6489 35.5843 22.7233 35.4287C22.9588 34.9362 23.1927 34.4469 23.4679 33.9729C23.5594 33.8151 23.637 33.6758 23.7205 33.5259C23.7339 33.5017 23.7475 33.4773 23.7614 33.4525C24.01 33.0069 24.2845 32.5861 24.5636 32.1581C24.6124 32.0833 24.6613 32.0083 24.7102 31.933L26.0755 30.2173L27.4407 28.5016C27.525 28.4162 27.6046 28.3253 27.6843 28.2343C27.7964 28.1064 27.9087 27.9783 28.0347 27.8645C28.1458 27.7641 28.2662 27.6444 28.3873 27.524C28.5528 27.3595 28.7196 27.1937 28.8659 27.0741C28.9463 27.0083 29.0191 26.9399 29.0919 26.8717C29.1618 26.8061 29.2315 26.7406 29.3078 26.6776C29.384 26.6146 29.4534 26.5544 29.5232 26.4938C29.5943 26.4322 29.6658 26.3702 29.7452 26.3046C31.0973 25.1874 32.0649 24.5332 33.5815 23.6107C35.4142 22.4961 37.8593 21.4882 39.9185 20.9604C40.4336 20.8283 41.2747 20.6628 41.881 20.5487C41.8131 20.5681 42.011 20.5365 42.6171 20.4137C42.6171 20.4137 42.307 20.4685 41.881 20.5487C42.1156 20.4815 45.5201 19.8052 46.2438 20.1673V30.1089C43.9846 30.1089 42.0814 30.536 40.1076 31.3507L37.7727 32.5819C37.3505 32.8383 36.9483 33.1291 36.5566 33.4308C36.5261 33.4542 36.4955 33.4778 36.4647 33.5014C36.2033 33.7021 35.934 33.9088 35.6994 34.1379L34.4012 35.4125C34.1155 35.7045 33.8423 36.0249 33.5815 36.3619C33.0014 37.1113 32.4827 37.9425 32.0241 38.7247C31.8127 39.0854 31.6388 39.4523 31.4598 39.8298C31.4163 39.9214 31.3726 40.0137 31.3279 40.1066L31.0249 40.8156C30.2553 42.6156 29.8644 45.0018 29.8644 46.9614Z" fill="#FDFDFD" fill-opacity="0.51"/>
</svg>
