<svg width="58" height="59" viewBox="0 0 58 59" fill="none" xmlns="http://www.w3.org/2000/svg">
<rect x="1.5" y="1.5" width="55" height="55" rx="6.5" fill="#D9D9D9" stroke="#00A859" stroke-width="3"/>
<circle cx="43" cy="18" r="5" fill="#00A859"/>
<path fill-rule="evenodd" clip-rule="evenodd" d="M0 58H32.9902C34.5578 58 35.5201 56.3207 34.7018 55.0131L15.2564 23.9381C14.4738 22.6873 12.616 22.6873 11.8333 23.9381L0 42.8485V58Z" fill="#00A859"/>
<path fill-rule="evenodd" clip-rule="evenodd" d="M58 49.5005L45.2193 30.8615C44.4316 29.7128 42.6847 29.7128 41.8971 30.8615L25.3342 55.0162C24.4578 56.2943 25.4073 58 26.9953 58H58V49.5005Z" fill="#00A859"/>
<path d="M0 23H58H0ZM61 51C61 57.0751 56.0751 62 50 62H8C1.92487 62 -3 57.0751 -3 51H3C3 53.7614 5.23858 56 8 56H50C52.7614 56 55 53.7614 55 51H61ZM8 62C1.92487 62 -3 57.0751 -3 51V23H3V51C3 53.7614 5.23858 56 8 56V62ZM61 23V51C61 57.0751 56.0751 62 50 62V56C52.7614 56 55 53.7614 55 51V23H61Z" fill="#00A859" mask="url(#path-3-inside-1_18_3)"/>
</svg>
