<svg width="54" height="79" viewBox="0 0 54 79" fill="none" xmlns="http://www.w3.org/2000/svg">
<rect x="32.8551" y="10.4262" width="15.1069" height="23.9739" transform="rotate(27.4138 32.8551 10.4262)" fill="#00A859"/>
<path d="M36.8815 2.66311C37.6444 1.19232 39.4551 0.618403 40.9259 1.38124L49.0101 5.5742C50.4809 6.33704 51.0548 8.14776 50.292 9.61856L47.5191 14.9648L34.1087 8.00934L36.8815 2.66311Z" fill="#00A859"/>
<path d="M34.2649 38.7274L22.3602 47.0668L22.3195 32.5318L34.2649 38.7274Z" fill="white" stroke="#00A859"/>
<path d="M19.8095 52L10.7216 60.6102C8.15609 63.0409 10.6741 67.2616 14.0317 66.1585V66.1585L28.8889 62.2073V62.2073C30.8759 61.4147 32.5123 63.9276 30.9838 65.4243L28.8889 67.4756V67.4756C27.3689 68.6546 28.8983 71.0066 30.5925 70.0957L52 58.5854" stroke="#00A859" stroke-width="3" stroke-linecap="round"/>
</svg>
